<svg xmlns="http://www.w3.org/2000/svg" viewBox="0 0 845.87 640.26"><defs><style>.a{fill:#0c3866;}.b{fill:#00a8e0;}</style></defs><path class="a" d="M351.63,323.66l-.23-43-20.87,35H320.32L299.57,281.8v41.86H278.34V242.49h18.91l28.52,46.85,27.83-46.85h18.91l.23,81.17Z"/><path class="a" d="M443.36,307.89H409l-6.38,15.77H379.23l35.83-81.17h22.61l35.95,81.17H449.74ZM436.63,291,426.2,265l-10.44,26Z"/><path class="a" d="M480.12,242.49h23v63h38.73v18.2H480.12Z"/><path class="a" d="M545.4,283.08c0-24.36,19.14-42.21,45.11-42.21s45.11,17.85,45.11,42.21-19.13,42.21-45.11,42.21S545.4,307.43,545.4,283.08Zm67,0c0-14-9.63-23.2-21.92-23.2s-21.92,9.16-21.92,23.2,9.63,23.19,21.92,23.19S612.43,297.11,612.43,283.08Z"/><path class="a" d="M724.91,242.49v81.17H706l-35.84-43.25v43.25H647.68V242.49h18.9l35.83,43.25V242.49Z"/><path class="a" d="M806.31,305.92v17.74H741.14V242.49h63.67v17.74H763.87v13.68h36.07v17.17H763.87v14.84Z"/><path class="b" d="M575.05,351.3v19.8h-5.63v-4.33c-2,3-5.63,4.7-10.77,4.7-7.42,0-12.12-4-12.12-9.65,0-5.26,3.4-9.59,13.18-9.59h9.4v-1.18c0-5-2.91-7.92-8.78-7.92a16.58,16.58,0,0,0-10.4,3.53l-2.48-4.46c3.41-2.72,8.3-4.2,13.56-4.2C570,338,575.05,342.33,575.05,351.3Zm-5.94,9.78V356.5H560c-5.87,0-7.54,2.29-7.54,5.07,0,3.28,2.72,5.32,7.23,5.32S567.63,364.85,569.11,361.08Z"/><path class="b" d="M616.63,338.31V371.1H611v-5a13.35,13.35,0,0,1-11.14,5.32c-8.47,0-14.1-4.64-14.1-14.29V338.31h5.94V356.5c0,6.43,3.21,9.65,8.84,9.65,6.19,0,10.15-3.84,10.15-10.89V338.31Z"/><path class="b" d="M646.4,369.18a11.21,11.21,0,0,1-7.18,2.29c-6.62,0-10.4-3.65-10.4-10.27v-18h-5.57v-4.88h5.57v-7.18h5.94v7.18h9.41v4.88h-9.41V361c0,3.53,1.86,5.51,5.14,5.51a7.49,7.49,0,0,0,4.64-1.55Z"/><path class="b" d="M649.43,354.7c0-9.77,7.24-16.7,17.07-16.7s17,6.93,17,16.7-7.18,16.77-17,16.77S649.43,364.48,649.43,354.7Zm28.09,0c0-7-4.7-11.51-11-11.51s-11.07,4.52-11.07,11.51,4.76,11.57,11.07,11.57S677.52,361.69,677.52,354.7Z"/><path class="b" d="M704.25,367.63l2.48-4.7a21,21,0,0,0,11.5,3.41c5.51,0,7.8-1.67,7.8-4.46,0-7.36-20.73-1-20.73-14.05,0-5.87,5.26-9.83,13.68-9.83,4.27,0,9.09,1.11,11.94,3l-2.54,4.7a17.12,17.12,0,0,0-9.47-2.6c-5.19,0-7.73,1.92-7.73,4.52,0,7.73,20.79,1.42,20.79,14.17,0,5.94-5.44,9.71-14.17,9.71C712.36,371.47,707,369.8,704.25,367.63Z"/><path class="b" d="M773.37,354.7c0,10.09-7,16.77-16.59,16.77a14,14,0,0,1-11.44-5.32v17H739.4V338.31h5.69v5.19c2.66-3.65,6.87-5.5,11.69-5.5C766.37,338,773.37,344.68,773.37,354.7Zm-6,0c0-6.93-4.76-11.51-11.07-11.51s-11,4.58-11,11.51,4.77,11.57,11,11.57S767.36,361.69,767.36,354.7Z"/><path class="b" d="M807.27,351.3v19.8h-5.63v-4.33c-2,3-5.63,4.7-10.76,4.7-7.43,0-12.13-4-12.13-9.65,0-5.26,3.4-9.59,13.18-9.59h9.4v-1.18c0-5-2.9-7.92-8.78-7.92a16.58,16.58,0,0,0-10.4,3.53l-2.47-4.46c3.4-2.72,8.29-4.2,13.55-4.2C802.2,338,807.27,342.33,807.27,351.3Zm-5.94,9.78V356.5h-9.15c-5.88,0-7.55,2.29-7.55,5.07,0,3.28,2.72,5.32,7.24,5.32S799.85,364.85,801.33,361.08Z"/><path class="a" d="M126,287.94a21.64,21.64,0,0,1,7.19,1.23c.49-.37,1-.72,1.5-1v-.6A21.81,21.81,0,0,1,153.19,266,20.9,20.9,0,0,1,174,246.65a20.66,20.66,0,0,1,4.26.45,21.8,21.8,0,0,1,19.88-12.9,22.57,22.57,0,0,1,5,.55l-38.78-70.23-51.38,89-26-45L35.27,298.1l53-34.59,19.24,34.74A21.78,21.78,0,0,1,126,287.94Z"/><path class="b" d="M174,253.19A14.33,14.33,0,0,0,159.75,266a21.59,21.59,0,0,1,6.53,2.09,21.9,21.9,0,0,1,6-2.81,22,22,0,0,1,4.27-6.62,21.67,21.67,0,0,1-.17-2.68,22.06,22.06,0,0,1,.16-2.58A14.74,14.74,0,0,0,174,253.19Z"/><path class="b" d="M251.44,323.66l-39.91-72.27c-2.57-4.64-6.19-8.31-11.17-9.16a13.31,13.31,0,0,0-2.22-.18c-.39,0-.78,0-1.17,0l-.37,0-.77.1-.42.08-.69.16-.43.11-.68.22-.39.13c-.33.13-.65.26-1,.41l-.43.22c-.18.09-.36.18-.53.28s-.33.19-.49.29l-.41.27-.51.35-.33.26c-.18.14-.35.27-.52.42l-.21.2a13,13,0,0,0-1.71,1.84c-.05.06-.09.12-.14.17-.15.21-.3.42-.44.64l-.15.23c-.14.22-.27.44-.4.66l-.12.23c-.13.23-.25.47-.37.71h0c-.18.39-.34.8-.49,1.21-.08.23-.16.46-.23.7l0,.1c0,.09-.05.18-.07.26-.08.3-.15.6-.21.91a.43.43,0,0,0,0,.11c-.07.35-.13.71-.17,1.07,0,.07,0,.14,0,.21,0,.42-.06.85-.06,1.28h0c0,.34,0,.67,0,1l0,.3c0,.32.06.64.11.95a28.1,28.1,0,0,1,4.77-.68c4.61-.38,9,3.79,9,3.79a13.33,13.33,0,0,0-2.4-.88,13.57,13.57,0,0,0-6.47-.21,11.62,11.62,0,0,0-3.89,1.28h0a13.93,13.93,0,0,0-6.85,10.69h-.07a13.84,13.84,0,0,0-8.75,3.09,23.59,23.59,0,0,1,4.08,8.56c1,4.89-1.68,11.25-1.68,11.25a13.36,13.36,0,0,0-.81-9.57,28.71,28.71,0,0,0-4.36-7.24h0a14,14,0,0,0-5.41-3.8h0c-.39-.15-.79-.28-1.2-.4h0a11.48,11.48,0,0,0-1.16-.27l-.16,0c-.38-.07-.76-.13-1.15-.17h-.18l-.23,0c-.33,0-.65,0-1,0h0c-.4,0-.81,0-1.2.06s-.76.09-1.13.15a14,14,0,0,0-10.7,8.81l0,0c-.13.35-.24.71-.35,1.08a.74.74,0,0,1,0,.14c-.09.35-.18.71-.24,1.07l0,.17c-.07.36-.12.73-.16,1.1a.66.66,0,0,1,0,.14c0,.39-.05.79-.05,1.19a14.48,14.48,0,0,0,.17,2.19,13.7,13.7,0,0,0,.58,2.31c.1.28.2.56.31.84h0a13.88,13.88,0,0,0-8.08,4.87,12.3,12.3,0,0,0-.81,1.09h0a14.77,14.77,0,0,0-1.53-1.05c-.29-.17-.59-.34-.9-.49a13.75,13.75,0,0,0-6.27-1.51,13.94,13.94,0,0,0-3.27,27.49c.3.07.6.14.91.19a14.18,14.18,0,0,0,2.36.2Z"/></svg>