<svg xmlns="http://www.w3.org/2000/svg" viewBox="0 0 845.87 640.26"><defs><style>.a{fill:#0c3866;}.b{fill:#00a8e0;}</style></defs><path class="a" d="M271.36,493.31,271.17,459l-16.65,27.93h-8.14l-16.56-27v33.39H212.9V428.56H228l22.76,37.37,22.2-37.37H288l.18,64.75Z"/><path class="a" d="M344.52,480.73H317.14l-5.09,12.58H293.37L322,428.56h18l28.68,64.75H349.6Zm-5.37-13.5-8.32-20.72-8.33,20.72Z"/><path class="a" d="M373.84,428.56h18.31v50.23h30.9v14.52H373.84Z"/><path class="a" d="M425.91,460.94c0-19.43,15.26-33.67,36-33.67s36,14.24,36,33.67-15.26,33.67-36,33.67S425.91,480.36,425.91,460.94Zm53.46,0c0-11.19-7.67-18.5-17.48-18.5s-17.48,7.31-17.48,18.5,7.68,18.5,17.48,18.5S479.37,472.13,479.37,460.94Z"/><path class="a" d="M569.09,428.56v64.75H554l-28.59-34.5v34.5H507.49V428.56h15.08l28.58,34.51V428.56Z"/><path class="a" d="M634,479.16v14.15H582V428.56h50.78v14.16H600.17v10.91h28.77v13.69H600.17v11.84Z"/><path class="b" d="M339.92,515.36v15.79h-4.49V527.7c-1.58,2.37-4.49,3.75-8.59,3.75-5.92,0-9.67-3.16-9.67-7.7,0-4.2,2.71-7.65,10.51-7.65h7.51v-.94c0-4-2.32-6.32-7-6.32a13.31,13.31,0,0,0-8.3,2.81l-2-3.55a17.42,17.42,0,0,1,10.81-3.36C335.88,504.74,339.92,508.2,339.92,515.36Zm-4.73,7.79V519.5h-7.31c-4.69,0-6,1.83-6,4,0,2.62,2.17,4.24,5.77,4.24S334,526.17,335.19,523.15Z"/><path class="b" d="M373.09,505v26.16H368.6V527.2a10.63,10.63,0,0,1-8.88,4.25c-6.77,0-11.26-3.71-11.26-11.41V505h4.74V519.5c0,5.14,2.57,7.7,7.06,7.7,4.93,0,8.09-3.06,8.09-8.69V505Z"/><path class="b" d="M396.83,529.62a8.9,8.9,0,0,1-5.73,1.83c-5.28,0-8.29-2.92-8.29-8.2V508.89h-4.44V505h4.44v-5.73h4.74V505h7.5v3.9h-7.5v14.17c0,2.81,1.48,4.39,4.1,4.39a6,6,0,0,0,3.7-1.24Z"/><path class="b" d="M399.25,518.07c0-7.8,5.77-13.33,13.62-13.33s13.57,5.53,13.57,13.33-5.72,13.38-13.57,13.38S399.25,525.87,399.25,518.07Zm22.41,0c0-5.58-3.76-9.18-8.79-9.18s-8.84,3.6-8.84,9.18,3.8,9.23,8.84,9.23S421.66,523.65,421.66,518.07Z"/><path class="b" d="M443,528.39l2-3.75a16.87,16.87,0,0,0,9.18,2.71c4.39,0,6.22-1.33,6.22-3.55,0-5.88-16.54-.79-16.54-11.21,0-4.69,4.2-7.85,10.91-7.85,3.41,0,7.26.89,9.53,2.37l-2,3.75a13.63,13.63,0,0,0-7.55-2.07c-4.14,0-6.17,1.53-6.17,3.6,0,6.17,16.59,1.14,16.59,11.31,0,4.74-4.35,7.75-11.31,7.75C449.44,531.45,445.15,530.11,443,528.39Z"/><path class="b" d="M498.11,518.07c0,8-5.58,13.38-13.23,13.38a11.16,11.16,0,0,1-9.13-4.25v13.53H471V505h4.54v4.15a11.13,11.13,0,0,1,9.33-4.4C492.53,504.74,498.11,510.07,498.11,518.07Zm-4.79,0c0-5.53-3.8-9.18-8.84-9.18s-8.78,3.65-8.78,9.18,3.8,9.23,8.78,9.23S493.32,523.65,493.32,518.07Z"/><path class="b" d="M525.15,515.36v15.79h-4.49V527.7c-1.58,2.37-4.49,3.75-8.59,3.75-5.92,0-9.67-3.16-9.67-7.7,0-4.2,2.71-7.65,10.51-7.65h7.51v-.94c0-4-2.33-6.32-7-6.32a13.31,13.31,0,0,0-8.3,2.81l-2-3.55A17.42,17.42,0,0,1,514,504.74C521.11,504.74,525.15,508.2,525.15,515.36Zm-4.73,7.79V519.5h-7.31c-4.69,0-6,1.83-6,4,0,2.62,2.17,4.24,5.77,4.24S519.23,526.17,520.42,523.15Z"/><path class="a" d="M388.26,330a42.46,42.46,0,0,1,14,2.38c.95-.71,1.93-1.39,2.93-2,0-.38,0-.77,0-1.16a42.44,42.44,0,0,1,36.06-41.9A40.49,40.49,0,0,1,490,250.52a42.44,42.44,0,0,1,38.68-25.09,44,44,0,0,1,9.65,1.07L462.85,89.9,362.91,263l-50.5-87.47L211.85,349.72l103-67.28L352.27,350A42.36,42.36,0,0,1,388.26,330Z"/><path class="b" d="M481.67,262.36A27.87,27.87,0,0,0,454,287.29a42.18,42.18,0,0,1,12.71,4.07,42.37,42.37,0,0,1,11.6-5.47,42.66,42.66,0,0,1,8.3-12.87,41.6,41.6,0,0,1,0-10.22A28.14,28.14,0,0,0,481.67,262.36Z"/><path class="b" d="M632.29,399.43,554.66,258.87c-5-9-12-16.18-21.72-17.83a26.21,26.21,0,0,0-4.31-.35c-.77,0-1.52,0-2.27.1l-.72.08c-.5,0-1,.12-1.5.2l-.82.15c-.46.09-.91.2-1.35.31l-.83.22c-.45.13-.89.27-1.33.42l-.75.26c-.64.24-1.26.5-1.87.79-.29.13-.56.28-.84.43s-.69.35-1,.54-.64.38-1,.57-.54.34-.8.52-.66.45-1,.69l-.66.5c-.34.27-.68.54-1,.82l-.42.38a26.91,26.91,0,0,0-3.32,3.59l-.27.33c-.3.41-.58.82-.86,1.24-.1.15-.2.3-.29.45-.27.42-.53.85-.77,1.28l-.24.44c-.24.46-.49.92-.71,1.4h0a24,24,0,0,0-.95,2.35c-.16.45-.32.9-.45,1.36a1.72,1.72,0,0,0-.07.21c-.05.16-.08.33-.13.5-.15.58-.3,1.17-.42,1.76a1.43,1.43,0,0,1,0,.22c-.13.68-.24,1.37-.32,2.08l0,.41c-.08.82-.13,1.65-.13,2.5h0c0,.65,0,1.3.08,1.94,0,.2,0,.39.05.59.06.62.13,1.24.23,1.85a53.64,53.64,0,0,1,9.27-1.33c9-.74,17.42,7.38,17.42,7.38s-.3-.3-4.66-1.72-8.55-1-12.58-.4a22.38,22.38,0,0,0-7.56,2.48v0a27.1,27.1,0,0,0-13.32,20.79h-.13a27,27,0,0,0-17,6c1.79,2.4,6.34,9.07,7.92,16.65,2,9.52-3.26,21.88-3.26,21.88s3.12-8.24-1.57-18.61c-3.86-8.56-7.37-12.84-8.48-14.08h0a27.28,27.28,0,0,0-10.52-7.38h0c-.76-.29-1.54-.56-2.33-.79h0c-.74-.22-1.49-.39-2.25-.54l-.32-.06c-.73-.14-1.48-.25-2.23-.32l-.35,0-.46,0c-.63-.05-1.26-.08-1.9-.08h0c-.79,0-1.57,0-2.35.12s-1.47.17-2.19.29a27.16,27.16,0,0,0-20.82,17.13l0,.06q-.39,1-.69,2.1c0,.09-.05.18-.07.26-.19.69-.35,1.39-.48,2.09l-.06.33c-.13.71-.23,1.43-.3,2.15a2.45,2.45,0,0,1,0,.27c-.06.76-.1,1.53-.1,2.31a27,27,0,0,0,.34,4.25,26.09,26.09,0,0,0,1.12,4.51c.18.54.38,1.09.6,1.62h0A27.12,27.12,0,0,0,406.75,349c-.56.69-1.08,1.4-1.57,2.14h0a26.66,26.66,0,0,0-3-2.05q-.84-.51-1.74-1a27.1,27.1,0,1,0-18.57,50.54c.59.14,1.18.26,1.78.36a26.74,26.74,0,0,0,4.59.4Z"/></svg>